<svg
   xmlns:dc="http://purl.org/dc/elements/1.1/"
   xmlns:cc="http://creativecommons.org/ns#"
   xmlns:rdf="http://www.w3.org/1999/02/22-rdf-syntax-ns#"
   xmlns:svg="http://www.w3.org/2000/svg"
   xmlns="http://www.w3.org/2000/svg"
   id="svg3370"
   version="1.1"
   width="1125"
   height="750"
   viewBox="0 0 1125 750"
   sodipodi:docname="JapanNavalFlag.svg">
  <metadata
     id="metadata3376">
    <rdf:RDF>
      <cc:Work
         rdf:about="">
        <dc:format>image/svg+xml</dc:format>
        <dc:type
           rdf:resource="http://purl.org/dc/dcmitype/StillImage" />
        <dc:title></dc:title>
      </cc:Work>
    </rdf:RDF>
  </metadata>
  <defs
     id="defs3374" />
  <sodipodi:namedview
     pagecolor="#ffffff"
     bordercolor="#666666"
     borderopacity="1"
     objecttolerance="10"
     gridtolerance="10"
     guidetolerance="10"
     id="namedview3372"
     showgrid="false"/>
  <g
     id="g3380">
    <path
       style="fill:#fdfdfd"
       d="M 0,375 0,0 562.5,0 1125,0 l 0,375 0,375 -562.5,0 L 0,750 0,375 Z"
       id="path3396"/>
    <path
       style="fill:#ecbbc5"
       d="M 0.19493977,742.77653 0.46875,735.55307 145.3125,616.63151 C 224.97656,551.22465 291.17749,496.94746 292.42567,496.01553 l 2.26943,-1.69443 -5.88347,-7.86368 c -3.23591,-4.32502 -7.78763,-11.12128 -10.11494,-15.1028 l -4.23146,-7.23913 -1.5295,0.80408 c -0.84121,0.44225 -62.4019,33.33657 -136.80151,73.09851 C 61.734593,577.78001 0.6681873,610.3125 0.43108858,610.3125 c -0.23709872,0 -0.42690171,-22.88672 -0.42178445,-50.85938 L 0.01860828,508.59375 129.90559,469.23588 l 129.88698,-39.35787 -0.51095,-1.89213 c -1.66811,-6.1774 -5.19162,-23.32576 -5.73427,-27.90776 l -0.6384,-5.39062 -2.00134,2e-4 c -1.10075,10e-5 -57.64201,5.48447 -125.64725,12.1875 C 57.25512,413.57821 1.2512141,419.0625 0.80723493,419.0625 L 0,419.0625 l 0,-43.53481 0,-43.53481 3.046875,0.4435 c 1.6757812,0.24392 56.625,5.6833 122.109375,12.0875 65.48437,6.4042 121.01119,11.88062 123.39292,12.16983 l 4.3304,0.52581 0.63771,-6.47169 c 0.35074,-3.55942 1.70503,-11.05491 3.00954,-16.65664 1.3045,-5.60172 2.44386,-10.75308 2.53188,-11.44749 l 0.16005,-1.26254 -129.23393,-39.22139 C 58.906155,260.58801 0.57827081,242.76577 0.36729711,242.5548 0.1563234,242.34383 0.09284288,219.38152 0.22622928,191.52744 L 0.46875,140.88368 l 136.39903,72.9106 c 75.01946,40.10083 136.65241,72.754 136.9621,72.5626 0.3097,-0.1914 2.48439,-3.6336 4.83265,-7.64931 2.34826,-4.01573 6.63328,-10.46415 9.52226,-14.32982 2.88899,-3.86567 5.25271,-7.25319 5.25271,-7.5278 0,-0.27461 -66.02344,-54.68252 -146.71875,-120.90646 L 0,15.536327 0,7.7618325 0,-0.01266161 65.787679,0.22804419 131.57536,0.46875 l 94.29044,114.96814 94.29045,114.96814 2.8125,-2.2163 c 3.68569,-2.90439 21.01312,-14.47017 24.67356,-16.46921 L 350.502,210.1578 294.45481,105.31328 238.40762,0.46875 l 43.16171,-0.24385508 43.16171,-0.24385507 0.64381,0.71260507 c 0.3541,0.39193288 13.84951,44.37666708 29.98982,97.74385508 16.1403,53.36719 29.40364,97.12926 29.47408,97.24904 0.0704,0.11978 4.31913,-0.83533 9.44154,-2.12247 5.1224,-1.28714 13.12057,-2.86171 17.7737,-3.49904 l 8.46025,-1.15878 -9.10124,-91.875 C 406.40732,46.5 402.2838,3.9960938 402.24963,2.578125 L 402.1875,0 439.21875,0 476.25,0 l 0,0.95700169 C 476.25,2.4415 458.54708,182.90782 458.0814,186.17056 l -0.41238,2.88931 8.24152,1.09728 c 4.53283,0.6035 12.37496,2.14582 17.42694,3.42736 l 9.18544,2.33008 0.53541,-0.50357 c 0.29448,-0.27696 13.83694,-44.25227 30.09436,-97.72292 L 552.71164,0.46875 596.52532,0.22509606 640.339,-0.01855789 637.59043,4.9125961 C 633.77985,11.74905 527.8125,210.14546 527.8125,210.44332 c 0,0.13261 3.26953,2.15116 7.26562,4.48567 3.9961,2.33451 10.64063,6.80976 14.76563,9.945 l 7.5,5.70045 3.28125,-3.69861 c 1.80469,-2.03423 44.41406,-53.8866 94.6875,-115.22746 L 746.71875,0.11950921 821.69271,0.05975461 896.66666,0 894.81771,1.7749011 C 893.80078,2.7510967 824.41406,59.751833 740.625,128.44321 656.83594,197.13457 587.33559,254.24424 586.17979,255.35358 l -2.10147,2.01696 5.24479,7.01786 c 2.88464,3.85982 7.1661,10.30344 9.51436,14.31917 2.34826,4.01571 4.5884,7.49835 4.97809,7.7392 l 0.70852,0.43789 258.64314,-138.24314 C 1005.4209,72.60779 1122.528,10.122981 1123.4052,9.7863863 L 1125,9.174396 l 0,79.278794 0,79.27879 -9.1406,2.80202 c -5.0274,1.54112 -115.0313,34.90892 -244.45315,74.1507 -129.42188,39.24177 -239.38605,72.59858 -244.36484,74.12625 l -9.05233,2.77757 1.3124,4.90887 c 2.10659,7.87933 5.07352,23.94202 5.07352,27.46753 l 0,3.24474 3.51562,-0.5055 c 1.9336,-0.27801 112.99219,-11.23774 246.79688,-24.35494 133.8047,-13.11721 244.8633,-24.0794 246.7969,-24.36043 l 3.5156,-0.51095 0,67.97983 c 0,37.38891 -0.1402,67.97983 -0.3114,67.97983 -0.1713,0 -111.6171,-10.96875 -247.65735,-24.375 C 740.991,405.65625 628.57503,394.6875 627.21798,394.6875 l -2.46736,0 -1.12356,7.73437 c -0.61796,4.25391 -2.14553,11.95148 -3.3946,17.10572 -1.24906,5.15424 -2.10379,9.53858 -1.89938,9.74299 0.27345,0.27345 458.28362,139.45041 500.33882,152.03951 l 6.3281,1.89431 0,79.27935 0,79.27936 -1.6406,-0.62771 C 1122.457,740.79017 1005.3532,678.30753 863.12857,602.2851 720.90397,526.26267 604.23772,464.0625 603.87023,464.0625 c -0.36748,0 -2.31326,2.81227 -4.32393,6.24947 -2.01069,3.43721 -6.31709,9.95576 -9.5698,14.48566 -3.2527,4.5299 -5.914,8.44443 -5.914,8.69895 0,0.25451 69.01894,57.12268 153.37542,126.37371 84.35649,69.25103 154.4932,126.84501 155.85938,127.98662 l 2.48395,2.07566 -74.69551,0.0337 L 746.39023,750 651.89395,634.84518 557.39767,519.69037 l -7.35431,5.45288 c -4.04487,2.99909 -10.70153,7.45882 -14.79259,9.91049 -4.09105,2.45168 -7.43827,4.68962 -7.43827,4.9732 0,0.28359 25.10156,47.47897 55.78125,104.87863 30.67969,57.39964 55.78125,104.52757 55.78125,104.72871 0,0.20115 -19.53003,0.36572 -43.40007,0.36572 l -43.40007,0 -0.9756,-3.51563 C 548.4456,735.12003 493.6923,555.35649 493.22418,554.82997 l -0.56793,-0.63879 -9.375,2.28241 c -5.15625,1.25533 -12.96739,2.8084 -17.35808,3.45129 l -7.98308,1.16887 9.09647,91.875 c 5.00305,50.53125 9.12278,93.03516 9.15495,94.45312 L 476.25,750 l -37.06354,0 -37.06354,0 0.53876,-4.45313 c 0.29631,-2.44921 4.31046,-43.05468 8.92033,-90.23437 4.60986,-47.17969 8.64029,-87.78516 8.9565,-90.23438 l 0.57494,-4.45312 -3.32164,0 c -3.59179,0 -19.59588,-2.94846 -27.55744,-5.07695 -2.70703,-0.72371 -4.92187,-1.20098 -4.92187,-1.0606 0,0.67426 -59.07264,194.89769 -59.36735,195.1924 -0.18648,0.18649 -19.76277,0.22934 -43.50285,0.0952 l -43.16378,-0.24383 55.64948,-104.0625 c 30.60722,-57.23438 55.53145,-104.44869 55.38717,-104.92071 -0.14427,-0.47202 -3.97034,-3.09504 -8.50236,-5.82895 -4.53203,-2.73391 -11.04783,-7.06956 -14.47956,-9.63477 l -6.2395,-4.66403 -1.07511,1.11798 C 319.24939,522.3382 164.1216,711.3728 135.0916,746.88544 l -2.43535,2.97919 -66.36756,0.0677 L -0.07887048,750 0.19493977,742.77653 Z"
       id="path3394" />
    <path
       style="fill:#e59cab"
       d="M 0,743.04588 0,736.09176 146.01562,616.34354 C 226.32422,550.48202 292.64439,496.03003 293.3938,495.33912 l 1.36256,-1.25618 -2.06742,-2.58835 c -1.86235,-2.33162 -15.22442,-22.09972 -17.53269,-25.93818 l -0.9375,-1.55899 -136.8354,73.15754 C 62.123883,577.39161 0.42103021,610.3125 0.26590232,610.3125 c -0.15512789,0 -0.17294858,-22.8641 -0.0396015,-50.80912 L 0.46875,508.69428 129.81829,469.45072 c 71.14225,-21.58395 129.50973,-39.40375 129.70552,-39.59954 0.1958,-0.19578 -0.74095,-4.94358 -2.08166,-10.55066 -1.34071,-5.60708 -2.92112,-13.61339 -3.51202,-17.79182 l -1.07438,-7.59712 -2.91225,0.42411 C 243.85584,395.22226 0.52765555,418.96516 0.26110606,418.69861 0.10709227,418.5446 0.0908065,399.04451 0.22491548,375.36508 L 0.46875,332.31159 l 120.9375,11.88704 c 66.51562,6.53789 123.28569,12.14714 126.15571,12.465 l 5.2182,0.57796 1.10453,-8.23017 c 0.6075,-4.5266 2.1327,-12.44892 3.38934,-17.60517 l 2.28479,-9.375 -0.63879,-0.59527 C 258.56871,321.10859 200.29004,303.26582 129.4119,281.78539 58.533759,260.30496 0.41681228,242.60431 0.26313031,242.45063 0.10944834,242.29695 0.09284288,219.41252 0.22622928,191.59634 L 0.46875,141.02147 136.875,213.93889 c 75.02344,40.10458 136.61719,72.90337 136.875,72.88622 0.25781,-0.0172 2.48671,-3.49342 4.9531,-7.72502 2.4664,-4.23162 6.79062,-10.77193 9.60938,-14.53406 2.81876,-3.76211 5.12502,-7.2039 5.12502,-7.6484 0,-0.44452 -65.91797,-54.90021 -146.48438,-121.01266 L 0.46875,15.700512 0.19787542,7.8502559 -0.07299916,0 65.486229,0 131.04546,0 225.03354,114.60938 c 51.69345,63.03515 94.26159,114.92289 94.59585,115.30607 l 0.60778,0.69672 6.37163,-4.79731 c 6.14484,-4.62655 21.19323,-14.40512 23.19517,-15.07244 l 0.9746,-0.32486 -53.59223,-100.2869 C 267.71062,54.972858 242.40189,7.6247593 240.94474,4.9126596 l -2.64938,-4.93109053 43.61126,0.24359046 43.61126,0.24359047 29.54877,97.5 c 16.25182,53.625 29.64377,97.61393 29.75988,97.75319 0.11611,0.13926 4.59717,-0.81265 9.95791,-2.11537 5.36074,-1.3027 13.4312,-2.86276 17.93435,-3.4668 l 8.18754,-1.09826 -0.48347,-3.34888 C 419.99096,182.70097 402.1875,1.9623638 402.1875,0.56942449 L 402.1875,0 439.21875,0 C 459.58594,0 476.25,0.17313102 476.25,0.3847356 476.25,1.6448014 458.39707,182.10113 457.9619,185.23965 l -0.53151,3.83341 7.71272,1.09071 c 4.242,0.5999 12.30033,2.18767 17.90741,3.52838 5.60708,1.34071 10.31493,2.28892 10.4619,2.10712 0.14696,-0.18179 13.56007,-44.20552 29.8069,-97.83052 l 29.53966,-97.5 43.36194,-0.24380629 43.36192,-0.24380628 -0.59339,1.54634217 C 638.66309,2.3779678 613.46067,49.72411 582.98408,106.74113 l -55.41198,103.66731 1.65461,0.96765 c 3.19473,1.86836 23.45788,15.5681 26.05277,17.61406 l 2.62323,2.06829 0.65802,-0.99353 c 0.36191,-0.54645 42.97389,-52.53459 94.69328,-115.52922 L 747.28928,0 822.00401,0.03810064 896.71875,0.07620127 893.72992,2.6162257 C 892.08608,4.013239 821.76768,61.6875 737.46682,130.78125 653.16597,199.875 584.16328,256.69484 584.12752,257.04756 c -0.0357,0.35271 2.21084,3.66656 4.99244,7.3641 2.7816,3.69753 7.10581,10.26211 9.60937,14.58796 l 4.55192,7.86515 1.40625,-0.31756 C 605.46094,286.37256 722.63508,223.93736 865.07447,147.80233 1007.5139,71.667298 1124.2678,9.375 1124.5276,9.375 l 0.4724,0 0,79.174684 0,79.174686 -3.0469,0.8516 C 1110.0213,171.9109 619.08278,321.02786 618.57997,321.4698 l -0.63879,0.56145 2.28479,9.375 c 1.25664,5.15625 2.78074,13.07032 3.38689,17.58682 l 1.1021,8.21182 5.68939,-0.5812 c 3.12917,-0.31967 115.58784,-11.40075 249.90815,-24.62464 l 244.2188,-24.04342 0.2405,67.42223 c 0.1324,37.08222 0.1324,67.52505 0,67.65072 -0.2315,0.21987 -488.42288,-47.69538 -496.27549,-48.70869 l -3.84744,-0.49648 -1.12069,8.16642 c -0.61637,4.49153 -2.16818,12.35046 -3.44844,17.46429 l -2.32775,9.29787 0.73338,0.64648 c 0.40336,0.35557 112.95213,34.66965 250.10838,76.25354 137.15625,41.58387 250.95705,76.09766 252.89065,76.69731 l 3.5156,1.09027 0,79.06145 0,79.06146 -0.5071,0 c -0.567,0 -3.0308,-1.31445 -304.57514,-162.48996 l -216.4885,-115.71316 -4.45319,7.40942 c -2.44925,4.07519 -6.85144,10.7403 -9.78262,14.81136 -2.93119,4.07107 -5.29831,7.66151 -5.26027,7.97878 0.0536,0.44736 125.35353,103.50314 305.44952,251.22401 l 5.78896,4.7483 -74.22646,0.253 -74.22645,0.25301 -1.875,-2.25737 C 743.8125,746.53833 701.625,695.1881 651.09375,633.66825 600.5625,572.1484 558.79687,521.30119 558.28125,520.67443 l -0.9375,-1.13955 -8.4375,6.12264 c -4.64063,3.36744 -11.43166,7.8778 -15.09119,10.02301 l -6.65368,3.90039 49.12102,91.85016 c 27.01656,50.51759 52.29796,97.86613 56.18088,105.21896 l 7.05986,13.36878 -43.37779,-0.24378 -43.3778,-0.24379 -1.56707,-5.15625 c -0.86189,-2.83594 -14.11258,-46.5 -29.44598,-97.03125 -15.3334,-50.53125 -28.18797,-92.20502 -28.5657,-92.60838 l -0.68681,-0.73338 -9.29787,2.32775 c -5.11383,1.28026 -12.98416,2.83366 -17.48961,3.45198 l -8.19174,1.12423 0.48851,3.37515 c 0.44109,3.04749 18.23872,183.68797 18.23872,185.11739 l 0,0.60151 -36.94204,0 -36.94204,0 0.4128,-3.51563 c 1.28382,-10.93379 18.15234,-185.23112 17.94237,-185.39311 -0.13879,-0.10707 -4.17288,-0.71722 -8.96465,-1.35589 -4.79177,-0.63866 -12.59109,-2.14473 -17.33182,-3.34681 l -8.61953,-2.18559 -0.49577,0.80217 c -0.27267,0.44119 -13.74403,44.49553 -29.93636,97.89852 L 325.93237,750 l -43.34476,0 -43.34477,0 2.62448,-4.92188 C 269.6663,692.94465 347.62575,546.94578 349.20006,544.07033 l 2.13436,-3.89842 -8.20237,-4.85524 c -4.51132,-2.67038 -11.23781,-7.13874 -14.94778,-9.92971 -3.70998,-2.79095 -6.90292,-5.07446 -7.09543,-5.07446 -0.19251,0 -38.84867,46.93359 -85.90257,104.29687 -47.05391,57.36329 -89.51164,109.04297 -94.35052,114.84375 L 132.03779,750 66.018893,750 0,750 0,743.04588 Z"
       id="path3392" />
    <path
       style="fill:#da7286"
       d="m 0,743.11415 0,-6.89844 147.20838,-120.81483 147.20838,-120.81482 -0.43571,-1.13543 c -0.23963,-0.62448 -2.75488,-4.27141 -5.58943,-8.1043 -2.83455,-3.83289 -7.10916,-10.18975 -9.49914,-14.12636 -2.38997,-3.9366 -4.46865,-7.15747 -4.61928,-7.15747 -0.15064,0 -61.81825,32.89802 -137.03917,73.10672 L 0.46875,610.27593 0.22614258,559.9587 -0.01646483,509.64146 0.69489258,509.02542 C 1.0861391,508.68661 59.64707,490.76928 130.83029,469.20915 l 129.42404,-39.20024 -2.49946,-9.92633 c -1.37471,-5.45948 -3.01773,-13.5849 -3.65115,-18.05648 l -1.15167,-8.13015 -2.9604,0.42774 C 248.36343,394.55896 193.24219,400.00237 127.5,406.42018 61.757812,412.83798 6.1757812,418.33382 3.984375,418.63315 L 0,419.17739 0,375.99494 0,332.8125 l 1.909937,0 c 1.0504653,0 57.598335,5.48437 125.661933,12.1875 68.0636,6.70312 124.06961,12.1875 124.45782,12.1875 l 0.70583,0 1.61158,-10.20393 c 0.88637,-5.61216 2.454,-13.49779 3.48363,-17.52361 l 1.87206,-7.31967 -0.71077,-0.67719 c -0.39092,-0.37246 -58.82405,-18.29724 -129.8514,-39.83283 L 0,242.47462 l 0,-50.55636 0,-50.55637 1.5207508,0.58357 c 0.836413,0.32096 62.2892872,33.06141 136.5619492,72.75655 74.27266,39.69515 135.28753,72.16092 135.58862,72.14619 0.30108,-0.0147 2.44587,-3.24429 4.76618,-7.17676 2.32031,-3.93248 6.83728,-10.68415 10.03771,-15.00372 l 5.81895,-7.85375 -11.60237,-9.57886 C 276.31049,241.96673 210.11475,187.66406 135.59015,126.5625 L 0.09086656,15.46875 0.04543327,7.734375 0,0 65.466744,0 130.93349,0 224.51514,114.14063 c 51.46992,62.77734 94.08779,114.69566 94.7064,115.37403 l 1.12474,1.23341 7.40499,-5.52363 c 4.07274,-3.03799 10.77998,-7.57435 14.90498,-10.08079 4.125,-2.50644 7.63511,-4.64845 7.80024,-4.76003 0.16513,-0.11157 -24.61777,-46.82036 -55.07313,-103.79731 C 264.928,49.60936 239.75166,2.3186887 239.43593,1.4959282 L 238.86189,0 l 43.14996,0 43.14997,0 1.43524,4.453125 c 0.78939,2.4492187 14.15218,46.429687 29.69511,97.734375 15.54291,51.30469 28.3988,93.42487 28.56864,93.60042 0.16983,0.17555 3.79842,-0.56329 8.06353,-1.64184 4.26511,-1.07856 12.32531,-2.68287 17.91154,-3.56515 l 10.15679,-1.60413 -0.52221,-3.78527 C 420.18324,183.10962 416.17755,142.80469 411.56893,95.625 406.9603,48.445312 402.93378,7.6289062 402.62109,4.921875 L 402.05258,0 l 37.15616,0 37.15615,0 -0.53831,3.984375 c -0.29606,2.1914062 -4.32195,42.796875 -8.94641,90.234375 -4.62448,47.4375 -8.65603,88.17834 -8.95903,90.5352 l -0.5509,4.28521 9.67426,1.58666 c 5.32084,0.87267 13.36868,2.49209 17.88409,3.59872 4.51541,1.10661 8.36489,1.83927 8.55438,1.62813 0.18951,-0.21116 13.64244,-44.25892 29.89541,-97.88392 l 29.55085,-97.5 43.22289,-0.24373785 43.22288,-0.24373786 0,0.53319569 c 0,0.29325763 -24.89415,47.10028102 -55.32034,104.01561002 -30.42619,56.91532 -55.55451,104.09269 -55.84074,104.83858 l -0.52042,1.35617 7.21697,4.38153 c 3.96934,2.40984 10.4008,6.73607 14.29214,9.61385 3.89134,2.87779 7.5659,5.27817 8.16569,5.33419 l 1.09054,0.10185 L 652.93608,115.07813 747.41332,0 l 74.65272,0.03371524 74.65271,0.03371523 -2.5281,2.07565973 C 892.8002,3.2847031 822.47235,60.960938 737.90653,130.3125 653.34071,199.66406 584.1307,256.70271 584.10651,257.06504 c -0.0242,0.36233 2.80365,4.61508 6.28411,9.45054 3.48047,4.83547 7.80469,11.40671 9.60938,14.60276 l 3.28125,5.811 1.53103,-0.37949 C 605.65435,286.34112 722.86284,223.8914 865.27559,147.77268 1007.6884,71.653955 1124.3861,9.375 1124.6039,9.375 c 0.2179,0 0.3961,35.648437 0.3961,79.21875 l 0,79.21875 -0.529,0 c -1.2119,0 -505.30645,153.07711 -505.89103,153.62264 l -0.63879,0.59611 2.1684,8.93125 c 1.19262,4.91219 2.70014,12.82235 3.35005,17.57813 0.64991,4.75578 1.24815,8.64687 1.32944,8.64687 0.0813,0 111.50184,-10.96819 247.60124,-24.37374 136.09939,-13.40557 248.61359,-24.37432 250.03159,-24.375 l 2.5781,-0.001 0,67.51108 0,67.51108 -3.5156,-0.50464 C 1119.5508,442.67747 1008.4922,431.71571 874.6875,418.59557 740.88281,405.47542 629.87236,394.52055 627.99759,394.25141 l -3.40865,-0.48935 -1.09288,7.72834 c -0.60109,4.25059 -2.13562,12.12712 -3.41007,17.50339 l -2.31717,9.77503 0.72497,0.66875 c 0.39873,0.3678 114.52574,35.17348 253.61558,77.34594 L 1125,583.46072 l 0,79.15119 0,79.1512 -1.1719,-0.47474 C 1123.1836,741.02726 1005.833,678.3582 863.04892,602.02377 L 603.4416,463.23391 l -5.25773,8.61742 c -2.89176,4.73958 -7.47224,11.54021 -10.17885,15.1125 l -4.92111,6.49508 0.72366,0.65711 c 0.39803,0.36142 69.27837,56.88243 153.06743,125.60226 83.78906,68.71982 153.72952,126.14586 155.42325,127.61343 l 3.07949,2.66829 -74.35795,0 -74.35796,0 -93.25278,-113.62784 C 602.12001,573.87684 559.51793,521.95817 558.73777,520.99732 l -1.41848,-1.74698 -6.55027,4.9629 c -3.60265,2.72959 -10.40588,7.31532 -15.1183,10.19051 l -8.56803,5.22763 50.09341,93.69993 c 27.55138,51.53497 52.84293,98.87214 56.20346,105.19372 l 6.11003,11.49377 -43.28811,-0.24377 -43.28811,-0.24378 -1.74949,-5.625 c -0.96222,-3.09375 -14.27581,-46.96875 -29.58576,-97.5 -15.30993,-50.53125 -27.948,-92.02373 -28.08459,-92.20553 -0.13658,-0.18179 -4.81054,0.74437 -10.38655,2.05812 -5.57603,1.31375 -13.63687,2.88478 -17.91299,3.49115 l -7.77476,1.10252 0.53935,3.87062 c 1.11439,7.99747 18.27365,184.66963 17.96591,184.97739 -0.17684,0.17683 -16.75518,0.21108 -36.84077,0.0761 l -36.51925,-0.24539 9.13513,-92.34375 c 5.02432,-50.78906 9.15825,-93.23305 9.18652,-94.31998 l 0.0514,-1.97624 -8.64687,-1.18165 c -4.75578,-0.64991 -12.6643,-2.15287 -17.57447,-3.33992 -4.91018,-1.18706 -9.10116,-1.98472 -9.31328,-1.77258 -0.34984,0.34983 -54.28703,177.29551 -57.92019,190.01224 l -1.5401,5.39063 -43.0716,0 -43.0716,0 0.62277,-1.64063 C 241.05361,746.69584 343.88597,553.89626 348.8767,545.0188 l 2.71249,-4.82495 -7.6996,-4.51397 c -4.23478,-2.48268 -11.04371,-6.99347 -15.13095,-10.02397 l -7.43134,-5.51 -1.52303,1.5193 c -0.83767,0.83561 -43.32087,52.44731 -94.40712,114.69267 L 132.51308,749.53125 66.256539,749.77192 0,750.01258 0,743.11415 Z"
       id="path3390"/>
    <path
       style="fill:#d2516b"
       d="m 0,743.15811 0,-6.84191 147.62558,-121.16018 147.62558,-121.16019 -4.42245,-5.50062 c -2.43235,-3.02533 -6.94313,-9.58314 -10.02396,-14.5729 -3.08082,-4.98977 -5.89878,-9.25603 -6.26211,-9.48059 L 273.88201,464.03343 137.17538,537.10744 0.46875,610.18145 0.22615794,559.9427 C 0.09273231,532.31137 0.18781701,509.49968 0.43745727,509.25005 0.68709754,509.0004 59.225951,491.09772 130.5238,469.46631 c 71.29784,-21.63142 129.70103,-39.3957 129.78484,-39.47621 0.0838,-0.0805 -0.86281,-3.94323 -2.1036,-8.58385 -1.24079,-4.64063 -2.87735,-12.60704 -3.63679,-17.70315 -0.75944,-5.0961 -1.50032,-9.36214 -1.6464,-9.48007 C 252.68746,394.03381 17.439055,417.0752 4.921875,418.51338 L 0,419.07888 0,375.94569 0,332.8125 l 1.7889499,0 c 0.9839223,0 57.4097031,5.48367 125.3906201,12.18594 67.98093,6.70227 124.10318,12.18664 124.71611,12.1875 l 1.11443,0.002 0.58888,-4.45313 c 0.95958,-7.25633 2.28603,-14.25128 4.36335,-23.00991 1.07543,-4.53436 1.79808,-8.37147 1.60587,-8.52692 -0.1922,-0.15578 -58.67368,-17.95453 -129.95884,-39.55313 L 0,242.37457 l 0,-50.50634 0,-50.50634 1.2464512,0.47832 c 0.6855482,0.26307 62.0912188,33.00351 136.4570488,72.75655 74.36582,39.75303 135.55267,72.27824 135.97076,72.27824 0.4181,0 2.662,-3.26953 4.98646,-7.26563 2.32446,-3.99609 6.82752,-10.77062 10.00681,-15.05452 l 5.78053,-7.78889 -1.93932,-1.58611 C 291.44211,254.3075 225.21908,200.01562 145.34646,134.53125 L 0.12349506,15.46875 0.06174753,7.734375 0,0 65.424204,0 130.84841,0 224.09608,113.62386 c 51.28622,62.49312 93.90841,114.43949 94.71598,115.43637 l 1.46831,1.8125 7.90669,-5.86786 c 4.34868,-3.22732 11.19526,-7.78076 15.21462,-10.11873 l 7.30795,-4.25087 -0.50323,-1.31139 C 349.92963,208.60262 324.80903,161.4454 294.38284,104.53008 263.95665,47.614751 239.0625,0.8119409 239.0625,0.52383284 L 239.0625,0 l 43.06182,0 43.06182,0 0.50331,1.640625 c 0.27682,0.9023438 13.60569,44.859042 29.61972,97.681556 16.01404,52.822509 29.29746,96.221949 29.51872,96.443199 0.22126,0.22126 4.11221,-0.47761 8.64657,-1.55304 8.77792,-2.08191 15.73888,-3.40096 23.08837,-4.37511 l 4.53158,-0.60064 -0.56542,-4.38392 C 420.21802,182.44151 416.19187,141.86719 411.58201,94.6875 406.97214,47.507812 402.95799,6.9023437 402.66168,4.453125 L 402.12292,0 l 37.07461,0 37.07463,0 -0.49691,3.515625 C 475.37478,6.3490402 457.5,187.70854 457.5,188.93843 c 0,0.19338 1.37109,0.56361 3.04687,0.82272 10.99909,1.70069 20.98488,3.64736 26.37084,5.14084 l 6.24566,1.73188 0.35743,-0.58257 c 0.1966,-0.3204 13.07386,-42.55911 28.61616,-93.8638 15.5423,-51.304688 28.90672,-95.2851563 29.69872,-97.734375 L 553.27568,0 l 43.14997,0 43.14996,0 -0.47684,1.171875 c -0.26226,0.6445312 -25.40775,47.789062 -55.87889,104.765625 -30.47112,56.97656 -55.3897,104.01562 -55.37461,104.53125 l 0.0275,0.9375 6.76678,3.86536 c 3.72173,2.12594 10.24961,6.45016 14.5064,9.60937 4.25681,3.15921 8.05368,5.7394 8.4375,5.73375 0.38383,-0.006 43.26731,-51.89626 95.29662,-115.3125 L 747.47873,0 l 74.62002,0.02084611 74.62,0.0208461 -2.05345,1.61977889 C 893.5359,2.5523495 823.02564,60.402671 737.97584,130.21774 l -154.63601,126.93649 5.44264,7.3405 c 2.99346,4.03727 7.58862,10.89325 10.21146,15.23551 l 4.76882,7.89501 4.9155,-2.64346 C 642.48227,266.80266 1124.4509,9.375 1124.6828,9.375 c 0.1744,0 0.3172,35.553362 0.3172,79.007471 l 0,79.007469 -253.35938,76.79297 c -139.34765,42.23613 -253.5081,76.8979 -253.6899,77.02617 -0.18179,0.12827 0.74437,4.79543 2.05812,10.37144 1.31375,5.57603 2.88212,13.6187 3.48526,17.8726 0.60313,4.25391 1.23895,7.73438 1.41293,7.73438 0.17397,0 111.70714,-10.96875 247.85147,-24.375 136.1443,-13.40625 248.5941,-24.375 249.8883,-24.375 l 2.3532,0 0,67.48207 0,67.48206 -3.9844,-0.51405 c -6.5508,-0.84516 -496.15637,-48.96752 -496.35353,-48.78561 -0.0999,0.0922 -0.86441,4.462 -1.69887,9.71065 -0.83445,5.24866 -2.48332,13.16101 -3.66414,17.583 l -2.14696,8.03998 0.56458,0.27324 c 0.31051,0.15028 114.57629,34.83013 253.92394,77.06631 L 1125,583.56821 l 0,78.99715 c 0,43.44842 -0.1516,78.99714 -0.3369,78.99714 -0.1854,0 -117.5453,-62.65157 -260.79982,-139.2257 L 603.4005,463.1111 l -0.79705,1.17883 c -0.43839,0.64835 -1.47652,2.44444 -2.30698,3.99132 -2.28308,4.25267 -10.46276,16.35404 -14.1458,20.92793 l -3.26355,4.05294 0.82206,0.78402 c 0.45214,0.43121 68.53301,56.33714 151.29082,124.23539 82.75781,67.89826 152.57812,125.29293 155.15625,127.54372 l 4.6875,4.09232 -74.0625,0.008 -74.0625,0.008 -5.18098,-6.29551 C 738.68824,740.17673 696.75478,689.03906 648.35232,630 599.94987,570.96094 559.60247,521.86022 558.69143,520.8873 l -1.65642,-1.76895 -4.06438,3.28592 c -3.73509,3.0197 -15.75738,11.05556 -23.01485,15.38343 l -3.01296,1.79673 51.33686,96.06716 c 28.23527,52.83694 53.52697,100.18044 56.20375,105.20778 l 4.8669,9.14063 -43.08041,0 -43.08041,0 -3.28135,-10.54688 C 548.10341,733.65234 534.798,689.88281 520.34057,642.1875 505.88315,594.49219 493.88021,554.99805 493.6674,554.42276 l -0.38694,-1.04599 -8.08741,2.15962 c -4.44807,1.18779 -12.38177,2.84236 -17.63043,3.67681 -5.24865,0.83446 -9.64001,1.6142 -9.75857,1.73275 -0.16783,0.16783 15.79665,164.95092 17.88446,184.60092 l 0.47315,4.45313 -36.51833,0 -36.51833,0 0,-2.74913 c 0,-1.51203 4.00724,-43.38313 8.90498,-93.04688 4.89773,-49.66376 8.90554,-90.98749 8.90625,-91.83052 l 9.3e-4,-1.53277 -7.73437,-1.09376 c -4.25391,-0.60158 -12.13315,-2.1365 -17.50942,-3.41095 l -9.77503,-2.31717 -0.62776,0.72497 c -0.34526,0.39873 -13.54153,43.36435 -29.32504,95.47916 -15.7835,52.11481 -29.12697,95.88434 -29.65213,97.26563 l -0.9545,2.51142 -42.77976,0 -42.77976,0 0.54091,-1.40959 c 0.40768,-1.06238 109.01786,-204.63115 110.87682,-207.81713 l 0.36931,-0.63296 -7.91229,-4.77926 c -4.35176,-2.62859 -11.13956,-7.09472 -15.084,-9.92472 l -7.17171,-5.14546 -0.86558,0.53496 c -0.47607,0.29423 -40.39148,48.70925 -88.70092,107.58893 -48.30943,58.87969 -90.56417,110.32351 -93.89942,114.3196 L 131.8884,750 65.944202,750 0,750 0,743.15811 Z"
       id="path3388" />
    <path
       style="fill:#c82b4a"
       d="M 0.19493977,743.01028 0.46875,736.02055 122.34375,636.00829 C 189.375,581.00154 255.69232,526.56397 269.71558,515.03589 l 25.49682,-20.96012 -5.83288,-7.74102 c -3.20809,-4.25755 -7.72071,-10.99623 -10.02807,-14.97486 l -4.1952,-7.23386 -0.9375,0.003 c -0.51563,0.002 -62.32031,32.83779 -137.34375,72.96962 L 0.46875,610.06528 0.22615794,559.88461 C 0.09273231,532.28524 0.17397013,509.51353 0.40668644,509.28082 0.63940275,509.0481 59.169173,491.15895 130.47284,469.52716 c 71.30367,-21.6318 129.72731,-39.41482 129.83032,-39.51782 0.10301,-0.103 -0.81602,-4.05011 -2.04228,-8.77135 -1.22626,-4.72124 -2.82801,-12.64136 -3.55944,-17.60025 -0.73142,-4.95889 -1.49997,-9.18626 -1.70787,-9.39416 -0.30675,-0.30676 -237.400102,22.69334 -249.477945,24.2015 L 0,418.88408 0,375.7177 l 0,-43.16637 4.453125,0.50925 c 2.4492187,0.2801 59.196135,5.88881 126.104255,12.46383 l 121.65114,11.95457 0.48519,-0.48519 c 0.26685,-0.26686 1.10828,-4.65666 1.86983,-9.75511 0.76154,-5.09847 2.22598,-12.52829 3.25429,-16.51071 1.02832,-3.98244 1.86967,-7.79092 1.86967,-8.46329 l 0,-1.22251 L 129.85232,281.69296 0.01713295,242.34375 0.00856648,191.95312 0,141.5625 l 0.47921453,0 c 0.26356798,0 61.63352647,32.69531 136.37768547,72.65625 74.74415,39.96094 136.27304,72.65625 136.73085,72.65625 l 0.83238,0 4.31733,-7.31128 c 2.37453,-4.0212 6.93641,-10.82938 10.13749,-15.1293 l 5.82015,-7.81802 -2.26943,-1.69478 C 291.17749,253.98948 224.97656,199.71656 145.3125,134.31514 L 0.46875,15.403438 0.19646031,7.701719 -0.0758294,0 65.352711,0.00827631 130.78125,0.0165526 225.38955,115.32078 c 52.03457,63.41732 94.78797,115.30422 95.00756,115.30422 0.2196,0 3.82063,-2.54705 8.0023,-5.6601 4.18167,-3.11306 10.89311,-7.60291 14.91431,-9.97744 4.02121,-2.37454 7.31128,-4.57787 7.31128,-4.89631 0,-0.31843 -25.10156,-47.53508 -55.78125,-104.9259 C 264.16406,47.774438 239.0625,0.63419537 239.0625,0.4091583 239.0625,0.18412124 258.38823,0 282.00856,0 l 42.94605,0 1.41852,4.453125 c 0.78019,2.4492187 14.22062,46.683806 29.86762,98.299085 l 28.4491,93.84596 8.35402,-2.17644 c 4.5947,-1.19704 12.59575,-2.8082 17.7801,-3.58035 5.18434,-0.77216 9.58293,-1.56079 9.77466,-1.75251 C 420.92426,188.76323 403.76762,11.195397 402.66849,3.515625 L 402.16534,0 l 36.98339,0 36.98339,0 -0.43015,3.046875 c -0.23659,1.6757812 -4.45112,44.12223 -9.36563,94.325437 l -8.93545,91.278568 0.48534,0.48535 c 0.26694,0.26694 4.45779,1.07127 9.31302,1.78742 4.85522,0.71613 12.7653,2.32791 17.57794,3.58172 4.81265,1.25383 8.80767,2.19445 8.87784,2.09027 0.11399,-0.16923 55.03171,-181.209034 58.28569,-192.142515 L 553.26604,0 596.32052,0 C 620.00048,0 639.375,0.18237502 639.375,0.40527781 639.375,0.70306243 560.3337,148.87742 529.72788,205.95468 l -2.60651,4.86093 7.61118,4.49006 c 4.18617,2.46954 11.07026,7.09668 15.29801,10.28252 l 7.68679,5.79245 L 652.65806,115.69032 747.59878,0 822.15877,0.02981566 896.71875,0.05963132 895.22,1.2016907 C 894.39569,1.8298233 823.86884,59.668794 738.49367,129.73274 l -155.22758,127.38898 5.00083,6.67352 c 4.57634,6.10704 13.97956,20.91297 14.75033,23.22525 l 0.32235,0.96707 257.20743,-137.47714 C 1002.0112,74.898003 1119.3848,12.201603 1121.3772,11.185093 L 1125,9.3368928 l 0,79.0034282 0,79.003429 -253.35743,76.79763 c -139.34661,42.23869 -253.53024,76.93489 -253.74139,77.10266 -0.21115,0.16777 0.52187,3.99946 1.62893,8.51487 1.10707,4.51541 2.63879,12.3813 3.40384,17.47976 0.76505,5.09846 1.58647,9.46542 1.82541,9.70434 0.23893,0.23893 112.7076,-10.62052 249.93038,-24.13211 137.22286,-13.51159 249.68286,-24.37964 249.91126,-24.15122 0.2285,0.22842 0.307,30.54397 0.1748,67.36789 l -0.2445,66.95258 -249.77933,-24.60142 c -137.3786,-13.53078 -249.96923,-24.41146 -250.20141,-24.17929 -0.23218,0.23217 -1.02058,4.47941 -1.752,9.4383 -0.73143,4.95889 -2.31459,12.80744 -3.51813,17.4412 l -2.18826,8.42504 2.0008,0.70507 c 1.10042,0.38778 115.37574,35.05799 253.94513,77.04488 l 251.9444,76.33982 0.01,79.00017 0.01,79.00016 -4.5275,-2.29428 C 1117.9823,738.03794 1000.6609,675.3824 859.75825,600.06525 718.8556,524.74811 603.45776,463.125 603.31859,463.125 c -0.13916,0 -2.15485,3.26953 -4.47931,7.26562 -2.32445,3.9961 -6.84857,10.79902 -10.05358,15.11761 l -5.82729,7.85196 1.25517,1.18921 c 0.69034,0.65407 67.48954,55.52109 148.44267,121.92673 80.95312,66.40563 150.50269,123.50898 154.55459,126.89632 l 7.36709,6.1588 -73.82207,0.24008 -73.82206,0.24009 -1.04502,-1.32795 C 743.97101,746.24649 561.12397,523.66728 559.15908,521.37789 l -1.93467,-2.25417 -7.90908,5.86963 c -4.34999,3.2283 -11.17861,7.77148 -15.17471,10.09593 -3.99609,2.32446 -7.26562,4.30756 -7.26562,4.40691 0,0.0993 20.39159,38.32756 45.31464,84.95159 24.92306,46.62403 50.1965,93.94675 56.16321,105.1616 L 639.20142,750 l -42.98611,0 -42.98612,0 -3.26619,-10.54687 c -1.7964,-5.80079 -15.15521,-49.78125 -29.68625,-97.73438 -14.53102,-47.95312 -26.5761,-87.44974 -26.76683,-87.77024 l -0.34677,-0.58274 -8.37962,2.17645 c -4.60879,1.19706 -12.4369,2.77491 -17.39579,3.50634 -4.95889,0.73142 -9.21557,1.52927 -9.45927,1.77298 -0.24372,0.24371 3.54101,41.1156 8.4105,90.82641 4.86949,49.71082 8.99722,92.17627 9.17272,94.36768 L 475.8308,750 l -36.3529,0 -36.3529,0 -0.0282,-1.64062 c -0.0155,-0.90235 4.06224,-43.30118 9.06162,-94.21964 l 9.08979,-92.57901 -0.49482,-0.49481 c -0.27215,-0.27215 -4.66629,-1.11789 -9.76474,-1.87941 -5.09846,-0.76152 -12.79603,-2.26469 -17.10572,-3.34038 l -7.83579,-1.95579 -0.7329,0.7892 c -0.40305,0.43407 -13.25588,42.13296 -28.5618,92.66421 -15.30594,50.53125 -28.57801,94.19531 -29.49352,97.03125 l -1.66455,5.15625 -42.79717,0.24383 -42.79718,0.24384 0,-0.56908 c 0,-0.313 25.16556,-47.65138 55.92347,-105.19643 l 55.92346,-104.62735 -1.0356,-0.3452 c -2.45428,-0.8181 -16.98369,-10.01336 -23.12085,-14.63256 l -6.68503,-5.03157 -71.20586,86.77806 c -39.16321,47.72793 -81.72422,99.56416 -94.58002,115.19163 L 131.8454,750 l -65.962138,0 -65.96213248,0 0.27381025,-6.98972 z"
       id="path3386"/>
    <path
       style="fill:#c21336"
       d="M 0.19493977,743.08651 0.46875,736.17302 147.65625,615.43472 c 80.95312,-66.40607 147.3219,-120.83955 147.48616,-120.9633 0.16427,-0.12375 -2.28931,-3.71541 -5.4524,-7.98145 -3.16308,-4.26606 -7.72716,-11.04248 -10.14241,-15.05873 l -4.39135,-7.30226 -0.9375,-0.0223 c -0.51563,-0.0123 -62.32031,32.79831 -137.34375,72.91242 L 0.46875,609.95382 0.22615794,559.82888 C 0.09273231,532.26016 0.14085998,509.54664 0.3331083,509.35439 0.52535663,509.16215 59.020456,491.30767 130.32222,469.67778 c 71.30176,-21.62988 129.78363,-39.47113 129.95971,-39.64721 0.17608,-0.17609 -0.74105,-4.50352 -2.03807,-9.61652 -1.29701,-5.11301 -2.86873,-13.04489 -3.4927,-17.62643 l -1.13449,-8.33005 -0.94895,-0.31473 c -0.52194,-0.1731 -57.48022,5.27173 -126.57397,12.09963 L 0.46875,418.65682 0.22481917,376.05672 C 0.09065723,352.62666 0.14017357,333.29733 0.33485551,333.10265 0.52953744,332.90797 57.271913,338.32184 126.42903,345.13347 l 125.7402,12.3848 0.60117,-0.60117 c 0.33065,-0.33064 1.1949,-4.62648 1.92057,-9.54631 0.72566,-4.91983 2.28619,-12.78003 3.46783,-17.46711 l 2.14844,-8.52196 -1.48174,-0.58039 c -0.81496,-0.3192 -59.27863,-18.11953 -129.91925,-39.55627 L 0.46875,242.26915 0.22623073,191.91583 c -0.1333856,-27.69433 -0.0741362,-50.35333 0.1316652,-50.35333 0.20580145,0 61.88403307,32.87706 137.06273407,73.06012 l 136.68855,73.06013 4.5292,-7.61488 c 2.49105,-4.18818 7.11985,-11.1806 10.28623,-15.53871 l 5.75705,-7.92383 -1.37175,-1.03705 C 292.55545,254.99792 226.25208,200.60803 145.96908,134.70187 L 0,14.872498 0,7.436249 0,0 65.390625,0.03268238 130.78125,0.06536476 224.98928,114.95932 c 51.81441,63.19169 94.52165,115.0878 94.90497,115.3247 l 0.69693,0.43074 8.65273,-6.2131 c 4.75899,-3.4172 11.51659,-7.88569 15.0169,-9.92998 3.50031,-2.04428 6.36419,-4.06832 6.36419,-4.49784 0,-0.42954 -25.10156,-47.74108 -55.78125,-105.13679 C 264.16406,47.541336 239.0625,0.45043877 239.0625,0.29060566 239.0625,0.13077255 258.39299,0 282.01913,0 l 42.95665,0 29.86968,98.472544 29.86968,98.472536 1.47056,-0.58599 c 3.14208,-1.25205 21.45069,-5.12024 26.92126,-5.68785 3.16976,-0.32888 6.25591,-0.90247 6.85812,-1.27466 l 1.0949,-0.67669 -9.29581,-94.125568 c -5.11269,-51.769064 -9.21342,-94.23599668 -9.11273,-94.37096018 0.1007,-0.13496349 16.60927,-0.13496349 36.68572,0 L 475.83978,0.46875 466.69102,92.8125 c -5.03183,50.78906 -9.05281,93.37784 -8.93552,94.64172 l 0.21325,2.29797 8.4375,1.20726 c 4.64062,0.66399 12.62856,2.25916 17.75096,3.54482 5.12241,1.28566 9.39865,2.23955 9.50276,2.11977 C 493.92804,196.31562 553.125,1.0499959 553.125,0.47416016 L 553.125,0 596.25,0 c 23.71875,0 43.125,0.12914926 43.125,0.28699836 0,0.2378425 -94.98034,178.13287164 -108.28005,202.80495164 l -4.10935,7.62318 7.73623,4.72748 c 4.25493,2.60011 11.17218,7.27507 15.37166,10.3888 l 7.63542,5.66132 L 652.69258,115.75801 747.65625,0.02328352 822.02506,0.01164176 896.39386,0 893.74381,2.198774 C 892.28628,3.4080997 822.53906,60.61907 738.75,129.33427 654.96094,198.04945 585.69765,254.96235 584.83158,255.80737 l -1.57468,1.53638 5.18388,7.03125 c 4.8684,6.60335 13.94139,20.74027 14.62264,22.78402 l 0.30793,0.92379 260.1112,-139.00204 C 1006.5437,72.629657 1123.9102,9.8955019 1124.2969,9.6715425 L 1125,9.2643431 l -0.015,79.0397039 -0.015,79.039703 -253.57871,76.85492 -253.57869,76.85493 0,1.27012 c 0,0.69857 0.81886,4.50448 1.81968,8.45758 1.00083,3.95309 2.42191,11.31556 3.15797,16.36104 0.73605,5.04547 1.58808,9.42338 1.89338,9.7287 l 0.55511,0.5551 249.17756,-24.51849 c 137.0477,-13.48518 249.494,-24.50762 249.8807,-24.49433 l 0.7031,0.0242 0,67.03125 0,67.03125 -2.4725,0 c -1.3598,0 -113.8274,-10.97021 -249.92795,-24.37825 l -247.45557,-24.37826 -0.73006,0.4512 -0.73005,0.4512 -0.65166,6.61331 -0.65166,6.61331 -2.62795,10.77306 -2.62794,10.77307 0.57829,0.34603 c 0.31807,0.19031 114.27361,34.81926 253.23455,76.9532 138.9609,42.13394 252.9751,76.90208 253.3648,77.26254 l 0.7085,0.65537 -0.2397,78.4202 -0.2398,78.42019 L 864.84375,602.6604 C 722.01562,526.31172 604.71128,463.66919 604.16744,463.45477 l -0.98881,-0.38987 -5.48244,8.86223 c -3.01535,4.87423 -7.58678,11.67215 -10.15872,15.10648 l -4.67627,6.24425 1.77252,1.69126 c 0.9749,0.93019 60.83503,50.1253 133.02253,109.32246 114.40062,93.81393 165.65462,135.92802 174.72293,143.56533 l 2.46457,2.07566 -74.0625,-0.0312 -74.0625,-0.0312 -4.27839,-5.32571 C 730.21313,729.32414 561.02033,523.25949 559.16413,521.32722 l -2.1773,-2.26652 -4.97778,3.81372 c -4.09371,3.13636 -16.89883,11.6229 -23.73832,15.73245 l -1.58211,0.95061 46.59234,87.17439 c 25.62578,47.94591 47.96808,89.70563 49.64954,92.79938 6.85977,12.62139 15.507,29.26538 15.507,29.8475 l 0,0.62125 -42.58355,0 -42.58354,0 -0.97036,-3.04688 c -0.5337,-1.67578 -13.87633,-45.62478 -29.65027,-97.66445 -15.77394,-52.03967 -28.86018,-94.90928 -29.08052,-95.2658 l -0.40062,-0.64821 -10.77307,2.62794 -10.77306,2.62795 -6.67139,0.65739 -6.6714,0.65737 -0.41418,1.07935 -0.41419,1.07933 8.91066,90.90113 c 4.90087,49.99562 9.04584,92.27222 9.21108,93.948 L 475.8735,750 l -36.37425,0 -36.37425,0 -0.0273,-1.17188 c -0.015,-0.64453 4.08418,-43.06707 9.10929,-94.2723 l 9.13656,-93.10044 -1.23671,-0.76432 c -0.6802,-0.42039 -4.0411,-1.04666 -7.46867,-1.39172 -3.42758,-0.34506 -10.97393,-1.73894 -16.76967,-3.09752 -5.79575,-1.35857 -10.67671,-2.29023 -10.84659,-2.07036 -0.16986,0.21988 -12.83462,41.74354 -28.14387,92.27479 -15.30926,50.53125 -28.62678,94.40625 -29.59448,97.5 l -1.75945,5.625 -42.76206,0.24383 C 259.24293,749.90919 240,749.82907 240,749.59703 c 0,-0.39229 12.36442,-23.59724 84.42241,-158.4399 l 27.52039,-51.49911 -1.03945,-0.34648 c -2.08305,-0.69435 -18.35372,-11.14567 -24.00537,-15.41964 l -5.80423,-4.38935 -1.03976,1.1081 c -0.57187,0.60945 -41.67724,50.67841 -91.34527,111.26435 -49.66803,60.58594 -91.8095,111.93538 -93.64774,114.10988 l -3.34223,3.95363 -65.89881,0.0308 L -0.07887048,750 0.19493977,743.08651 Z"
       id="path3384"/>
    <path
       style="fill:#bd0025"
       d="M 0.05030962,743.20312 0.10061922,736.40625 145.85591,616.875 C 226.02133,551.13281 292.52059,496.65136 293.63205,495.8051 l 2.02083,-1.53867 -6.16144,-8.30508 c -3.38879,-4.5678 -8.13727,-11.57409 -10.55217,-15.56952 l -4.39074,-7.26443 -3.91489,2.23787 C 263.78068,469.28262 3.3521066,608.29432 1.640625,608.9485 L 0,609.57561 0,559.38558 0,509.19555 4.921875,507.75819 c 17.062462,-4.98281 255.011335,-77.3789 255.310945,-77.67851 0.2031,-0.2031 -0.67927,-4.50271 -1.96081,-9.5547 -1.28154,-5.05198 -2.83486,-12.97681 -3.45183,-17.61073 l -1.12175,-8.4253 -1.00361,-0.38513 c -0.55198,-0.21181 -56.68491,5.10534 -124.73983,11.8159 C 59.900055,412.63027 3.2695313,418.12168 2.109375,418.12285 L 0,418.125 0,375.46875 0,332.8125 l 0.57243111,0 c 0.31483711,0 56.31874289,5.49761 124.45311889,12.21691 68.13439,6.7193 124.92359,12.0982 126.19825,11.95312 l 2.31755,-0.26378 1.13725,-8.52666 c 0.62548,-4.68966 2.16964,-12.70529 3.43146,-17.8125 1.26183,-5.10722 2.23842,-9.33149 2.17021,-9.38727 -0.0682,-0.0558 -58.34277,-17.72641 -129.49902,-39.26804 C 59.625,260.18265 1.0861064,242.27377 0.69481971,241.92679 L -0.0166106,241.29589 0.22606971,191.42768 0.46875,141.55947 137.2752,214.67641 c 75.24354,40.21431 136.86453,73.01578 136.93552,72.89214 3.69301,-6.43248 12.15163,-19.45119 15.583,-23.98394 2.5197,-3.32845 4.58128,-6.32899 4.58128,-6.66784 0,-0.33886 -66.23438,-54.96765 -147.1875,-121.39729 L 0,14.738298 0,7.369149 0,0 65.390625,0.05791159 130.78125,0.11582318 225.00633,115.06002 c 51.8238,63.21931 94.67365,115.09373 95.2219,115.27647 l 0.99683,0.33228 6.19786,-4.6919 c 3.40881,-2.58054 10.1841,-7.14718 15.05618,-10.14808 l 8.85834,-5.45618 -49.61447,-92.76443 C 274.43501,66.587744 249.14514,19.253906 245.52327,12.421875 L 238.93804,0 l 42.9841,0 42.9841,0 29.77597,98.166591 c 16.37678,53.991629 29.86272,98.238839 29.96875,98.327149 0.10603,0.0883 4.37142,-0.87185 9.47863,-2.13368 5.10721,-1.26182 13.12284,-2.80598 17.8125,-3.43146 l 8.52666,-1.13725 0.22868,-2.31755 c 0.12576,-1.27466 -3.89674,-43.97771 -8.93891,-94.895675 L 402.59094,0 l 36.66717,0 36.66715,0 -0.33055,2.578125 C 474.8671,8.2530443 457.50113,186.22594 457.50059,188.01344 l -5.9e-4,1.91969 8.67187,1.12207 c 4.76954,0.61712 12.86225,2.17227 17.98382,3.45586 5.12158,1.28358 9.41983,2.22591 9.55169,2.09405 0.13185,-0.13185 13.64316,-44.42194 30.02512,-98.422423 L 553.51788,0 l 42.95263,0 42.95264,0 -1.56659,3.046875 C 636.31074,6.0533427 527.93576,208.93728 527.22021,210.16422 l -0.36914,0.63296 7.74633,4.69028 c 4.26049,2.57964 11.11647,7.22002 15.2355,10.31193 l 7.48916,5.62167 0.99195,-0.82325 c 0.54557,-0.45278 43.37076,-52.5067 95.16709,-115.67537 L 747.65625,0.07031078 821.69271,0.0351554 895.72916,0 893.88021,1.776417 C 892.86328,2.7534463 823.47656,59.756332 739.6875,128.44949 655.89844,197.14266 586.39267,254.25706 585.23025,255.37039 l -2.11351,2.02423 5.97449,8.10669 c 3.28598,4.45868 7.82299,11.29752 10.08226,15.19744 2.25926,3.89992 4.3187,7.09038 4.57651,7.08993 0.25781,-4.6e-4 117.53906,-62.58016 260.625,-139.06601 l 260.1563,-139.0651806 0.2398,78.3221126 0.2397,78.322118 -0.7085,0.66222 c -0.3897,0.36423 -114.4039,35.13278 -253.3648,77.26344 -138.96094,42.13065 -252.89649,76.74415 -253.19013,76.91888 l -0.53388,0.3177 2.13808,8.48084 c 1.17593,4.66447 2.7318,12.50616 3.45746,17.42599 0.72567,4.91983 1.60618,9.23192 1.95668,9.58242 l 0.63729,0.63728 246.28287,-24.23934 c 135.45553,-13.33164 247.86493,-24.44662 249.79853,-24.69994 l 3.5156,-0.46059 0,67.15469 0,67.15469 -1.4943,0 c -0.8218,0 -112.9351,-10.97799 -249.14057,-24.39555 -136.20551,-13.41755 -248.2565,-24.27942 -249.0022,-24.13749 l -1.35582,0.25804 -1.21191,8.43438 c -0.66655,4.6389 -2.26381,12.62543 -3.54947,17.74783 -1.28566,5.12241 -2.23955,9.37496 -2.11977,9.45011 0.11978,0.0752 114.12404,34.64898 253.34279,76.83072 139.21875,42.18174 253.44385,76.97614 253.83355,77.32091 l 0.7085,0.62683 -0.2397,78.35836 -0.2398,78.35835 L 864.375,602.26402 C 721.28906,525.76538 603.93066,463.16419 603.57855,463.15028 c -0.35211,-0.0139 -2.74539,3.45519 -5.31842,7.70909 -2.57302,4.25391 -7.0313,10.89759 -9.90731,14.76373 l -5.22909,7.02935 0.30634,0.91901 c 0.16848,0.50544 62.92267,52.30795 139.45375,115.11668 76.53109,62.80872 146.40679,120.1929 155.27935,127.5204 l 16.13192,13.32271 -73.31942,0.26455 -73.31942,0.26457 -3.12984,-3.54582 C 742.805,744.56437 704.00438,697.40625 658.30282,641.71875 612.60126,586.03125 571.16309,535.57086 566.218,529.58455 l -8.99105,-10.8842 -6.03536,4.60116 c -3.31943,2.53064 -10.14862,7.15307 -15.17597,10.27208 -5.02734,3.119 -9.14062,5.87282 -9.14062,6.11958 0,0.24676 24.90383,47.03386 55.34186,103.97134 30.43803,56.93747 55.58472,104.15556 55.88156,104.92909 l 0.53969,1.4064 -42.59926,0 -42.59926,0 -1.10639,-3.51563 c -0.60852,-1.93359 -14.02968,-46.125 -29.82482,-98.20312 -15.79515,-52.07813 -28.79028,-94.78551 -28.87808,-94.90529 -0.0878,-0.11979 -4.35068,0.83411 -9.47309,2.11977 -5.1224,1.28566 -13.10893,2.88292 -17.74783,3.54947 l -8.43438,1.21191 -0.26943,1.39901 c -0.14818,0.76946 3.75276,42.21352 8.66876,92.09792 4.91599,49.88439 8.93817,91.94698 8.93817,93.47242 l 0,2.77354 -36.09375,0 -36.09375,0 0.0537,-2.57813 c 0.0295,-1.41796 4.16857,-43.92187 9.19779,-94.45312 5.02921,-50.53125 9.0691,-91.99452 8.97751,-92.1406 -0.0916,-0.14608 -4.46324,-0.90555 -9.71478,-1.68772 -5.25153,-0.78216 -13.3641,-2.38412 -18.02791,-3.55989 l -8.47965,-2.13778 -0.37215,1.01299 c -0.20462,0.55715 -12.83318,42.14581 -28.06341,92.41925 -15.23023,50.27344 -28.55649,94.04297 -29.61391,97.26562 L 325.15963,750 l -42.5916,0 -42.5916,0 3.20165,-6.32813 c 1.7609,-3.48046 26.86776,-50.59473 55.79303,-104.69836 28.92526,-54.10364 52.58622,-98.61146 52.5799,-98.90625 -0.007,-0.29481 -3.20234,-2.38451 -7.10226,-4.64377 -3.89992,-2.25927 -10.73753,-6.79538 -15.19471,-10.08024 l -8.10396,-5.97249 -1.5381,1.64275 c -0.84594,0.9035 -40.27416,48.89274 -87.61825,106.64274 -47.3441,57.75 -89.27401,108.87503 -93.17758,113.61118 l -7.0974,8.61118 -65.859375,0.0607 L 0,750 0.05030962,743.20312 Z"
       id="path3382"/>
  </g>
</svg>
